<mxfile host="app.diagrams.net" modified="2023-04-10T16:14:49.182Z" agent="Mozilla/5.0 (Macintosh; Intel Mac OS X 10_15_7) AppleWebKit/537.36 (KHTML, like Gecko) Chrome/111.0.0.0 Safari/537.36" etag="R_wyEgdfP5MVDP-07Lx-" version="21.1.5" type="google">
  <diagram id="C5RBs43oDa-KdzZeNtuy" name="Page-1">
    <mxGraphModel grid="1" page="1" gridSize="10" guides="1" tooltips="1" connect="1" arrows="1" fold="1" pageScale="1" pageWidth="827" pageHeight="1169" math="0" shadow="0">
      <root>
        <mxCell id="WIyWlLk6GJQsqaUBKTNV-0" />
        <mxCell id="WIyWlLk6GJQsqaUBKTNV-1" parent="WIyWlLk6GJQsqaUBKTNV-0" />
        <mxCell id="WIyWlLk6GJQsqaUBKTNV-2" value="" style="rounded=0;html=1;jettySize=auto;orthogonalLoop=1;fontSize=11;endArrow=block;endFill=0;endSize=8;strokeWidth=1;shadow=0;labelBackgroundColor=none;edgeStyle=orthogonalEdgeStyle;" edge="1" parent="WIyWlLk6GJQsqaUBKTNV-1" source="WIyWlLk6GJQsqaUBKTNV-3">
          <mxGeometry relative="1" as="geometry">
            <mxPoint x="70" y="110" as="targetPoint" />
          </mxGeometry>
        </mxCell>
        <mxCell id="WIyWlLk6GJQsqaUBKTNV-3" value="Order Created&lt;br&gt;lambda = 1/7, min" style="rounded=1;whiteSpace=wrap;html=1;fontSize=12;glass=0;strokeWidth=1;shadow=0;" vertex="1" parent="WIyWlLk6GJQsqaUBKTNV-1">
          <mxGeometry x="10" y="20" width="120" height="40" as="geometry" />
        </mxCell>
        <mxCell id="qzmpPcX-2nJoJMUCSN6A-0" value="Clerk searches buyer&#39;s name&lt;br&gt;U(20,45), seconds" style="rounded=1;whiteSpace=wrap;html=1;fontSize=12;glass=0;strokeWidth=1;shadow=0;" vertex="1" parent="WIyWlLk6GJQsqaUBKTNV-1">
          <mxGeometry x="10" y="110" width="120" height="40" as="geometry" />
        </mxCell>
        <mxCell id="qzmpPcX-2nJoJMUCSN6A-5" value="" style="endArrow=classic;html=1;rounded=0;exitX=0.5;exitY=1;exitDx=0;exitDy=0;" edge="1" parent="WIyWlLk6GJQsqaUBKTNV-1" source="qzmpPcX-2nJoJMUCSN6A-0">
          <mxGeometry width="50" height="50" relative="1" as="geometry">
            <mxPoint x="390" y="340" as="sourcePoint" />
            <mxPoint x="70" y="190" as="targetPoint" />
          </mxGeometry>
        </mxCell>
        <mxCell id="qzmpPcX-2nJoJMUCSN6A-50" value="" style="edgeStyle=orthogonalEdgeStyle;rounded=0;orthogonalLoop=1;jettySize=auto;html=1;" edge="1" parent="WIyWlLk6GJQsqaUBKTNV-1" source="qzmpPcX-2nJoJMUCSN6A-6" target="qzmpPcX-2nJoJMUCSN6A-22">
          <mxGeometry relative="1" as="geometry" />
        </mxCell>
        <mxCell id="qzmpPcX-2nJoJMUCSN6A-6" value="Buyer not found,&lt;br&gt;Clerk enters info U(10,30), seconds" style="rounded=1;whiteSpace=wrap;html=1;fontSize=12;glass=0;strokeWidth=1;shadow=0;" vertex="1" parent="WIyWlLk6GJQsqaUBKTNV-1">
          <mxGeometry x="10" y="190" width="120" height="40" as="geometry" />
        </mxCell>
        <mxCell id="qzmpPcX-2nJoJMUCSN6A-9" value="" style="endArrow=none;html=1;rounded=0;exitX=0.5;exitY=1;exitDx=0;exitDy=0;" edge="1" parent="WIyWlLk6GJQsqaUBKTNV-1" source="qzmpPcX-2nJoJMUCSN6A-0">
          <mxGeometry width="50" height="50" relative="1" as="geometry">
            <mxPoint x="510" y="340" as="sourcePoint" />
            <mxPoint x="160" y="180" as="targetPoint" />
          </mxGeometry>
        </mxCell>
        <mxCell id="qzmpPcX-2nJoJMUCSN6A-10" value="" style="endArrow=none;html=1;rounded=0;exitX=0.5;exitY=1;exitDx=0;exitDy=0;" edge="1" parent="WIyWlLk6GJQsqaUBKTNV-1">
          <mxGeometry width="50" height="50" relative="1" as="geometry">
            <mxPoint x="160" y="180" as="sourcePoint" />
            <mxPoint x="160" y="230" as="targetPoint" />
          </mxGeometry>
        </mxCell>
        <mxCell id="qzmpPcX-2nJoJMUCSN6A-11" value="" style="endArrow=none;html=1;rounded=0;" edge="1" parent="WIyWlLk6GJQsqaUBKTNV-1">
          <mxGeometry width="50" height="50" relative="1" as="geometry">
            <mxPoint x="80" y="260" as="sourcePoint" />
            <mxPoint x="160" y="230" as="targetPoint" />
          </mxGeometry>
        </mxCell>
        <mxCell id="qzmpPcX-2nJoJMUCSN6A-12" value="40%" style="text;html=1;strokeColor=none;fillColor=none;align=center;verticalAlign=middle;whiteSpace=wrap;rounded=0;" vertex="1" parent="WIyWlLk6GJQsqaUBKTNV-1">
          <mxGeometry x="150" y="190" width="60" height="30" as="geometry" />
        </mxCell>
        <mxCell id="qzmpPcX-2nJoJMUCSN6A-13" value="" style="endArrow=classic;html=1;rounded=0;exitX=0.5;exitY=1;exitDx=0;exitDy=0;" edge="1" parent="WIyWlLk6GJQsqaUBKTNV-1">
          <mxGeometry width="50" height="50" relative="1" as="geometry">
            <mxPoint x="70.5" y="231" as="sourcePoint" />
            <mxPoint x="70.5" y="271" as="targetPoint" />
          </mxGeometry>
        </mxCell>
        <mxCell id="qzmpPcX-2nJoJMUCSN6A-14" value="60%" style="text;html=1;strokeColor=none;fillColor=none;align=center;verticalAlign=middle;whiteSpace=wrap;rounded=0;" vertex="1" parent="WIyWlLk6GJQsqaUBKTNV-1">
          <mxGeometry x="25" y="155" width="60" height="30" as="geometry" />
        </mxCell>
        <mxCell id="qzmpPcX-2nJoJMUCSN6A-16" value="" style="rhombus;whiteSpace=wrap;html=1;" vertex="1" parent="WIyWlLk6GJQsqaUBKTNV-1">
          <mxGeometry x="30" y="270" width="80" height="80" as="geometry" />
        </mxCell>
        <mxCell id="qzmpPcX-2nJoJMUCSN6A-17" value="First Time vs Upgrade" style="text;html=1;strokeColor=none;fillColor=none;align=center;verticalAlign=middle;whiteSpace=wrap;rounded=0;" vertex="1" parent="WIyWlLk6GJQsqaUBKTNV-1">
          <mxGeometry x="40" y="295" width="60" height="30" as="geometry" />
        </mxCell>
        <mxCell id="qzmpPcX-2nJoJMUCSN6A-19" value="" style="endArrow=classic;html=1;rounded=0;exitX=1;exitY=0.5;exitDx=0;exitDy=0;" edge="1" parent="WIyWlLk6GJQsqaUBKTNV-1" source="qzmpPcX-2nJoJMUCSN6A-16">
          <mxGeometry width="50" height="50" relative="1" as="geometry">
            <mxPoint x="500" y="290" as="sourcePoint" />
            <mxPoint x="150" y="310" as="targetPoint" />
          </mxGeometry>
        </mxCell>
        <mxCell id="qzmpPcX-2nJoJMUCSN6A-20" value="" style="endArrow=classic;html=1;rounded=0;exitX=0.5;exitY=1;exitDx=0;exitDy=0;" edge="1" parent="WIyWlLk6GJQsqaUBKTNV-1" source="qzmpPcX-2nJoJMUCSN6A-16">
          <mxGeometry width="50" height="50" relative="1" as="geometry">
            <mxPoint x="120" y="320" as="sourcePoint" />
            <mxPoint x="70" y="380" as="targetPoint" />
          </mxGeometry>
        </mxCell>
        <mxCell id="qzmpPcX-2nJoJMUCSN6A-21" value="Upgrade, Enter code&lt;br&gt;lambda = 1/2, min" style="rounded=1;whiteSpace=wrap;html=1;fontSize=12;glass=0;strokeWidth=1;shadow=0;" vertex="1" parent="WIyWlLk6GJQsqaUBKTNV-1">
          <mxGeometry x="150" y="295" width="120" height="40" as="geometry" />
        </mxCell>
        <mxCell id="qzmpPcX-2nJoJMUCSN6A-22" value="30%" style="text;html=1;strokeColor=none;fillColor=none;align=center;verticalAlign=middle;whiteSpace=wrap;rounded=0;" vertex="1" parent="WIyWlLk6GJQsqaUBKTNV-1">
          <mxGeometry x="100" y="280" width="60" height="30" as="geometry" />
        </mxCell>
        <mxCell id="qzmpPcX-2nJoJMUCSN6A-24" value="70%" style="text;html=1;strokeColor=none;fillColor=none;align=center;verticalAlign=middle;whiteSpace=wrap;rounded=0;" vertex="1" parent="WIyWlLk6GJQsqaUBKTNV-1">
          <mxGeometry x="60" y="350" width="60" height="30" as="geometry" />
        </mxCell>
        <mxCell id="qzmpPcX-2nJoJMUCSN6A-26" value="&lt;meta charset=&quot;utf-8&quot;&gt;&lt;span style=&quot;color: rgb(0, 0, 0); font-family: Helvetica; font-size: 12px; font-style: normal; font-variant-ligatures: normal; font-variant-caps: normal; font-weight: 400; letter-spacing: normal; orphans: 2; text-align: center; text-indent: 0px; text-transform: none; widows: 2; word-spacing: 0px; -webkit-text-stroke-width: 0px; background-color: rgb(251, 251, 251); text-decoration-thickness: initial; text-decoration-style: initial; text-decoration-color: initial; float: none; display: inline !important;&quot;&gt;First Time,&lt;/span&gt;&lt;br style=&quot;border-color: var(--border-color); color: rgb(0, 0, 0); font-family: Helvetica; font-size: 12px; font-style: normal; font-variant-ligatures: normal; font-variant-caps: normal; font-weight: 400; letter-spacing: normal; orphans: 2; text-align: center; text-indent: 0px; text-transform: none; widows: 2; word-spacing: 0px; -webkit-text-stroke-width: 0px; background-color: rgb(251, 251, 251); text-decoration-thickness: initial; text-decoration-style: initial; text-decoration-color: initial;&quot;&gt;&lt;span style=&quot;color: rgb(0, 0, 0); font-family: Helvetica; font-size: 12px; font-style: normal; font-variant-ligatures: normal; font-variant-caps: normal; font-weight: 400; letter-spacing: normal; orphans: 2; text-align: center; text-indent: 0px; text-transform: none; widows: 2; word-spacing: 0px; -webkit-text-stroke-width: 0px; background-color: rgb(251, 251, 251); text-decoration-thickness: initial; text-decoration-style: initial; text-decoration-color: initial; float: none; display: inline !important;&quot;&gt;Perferred Medium Check&lt;/span&gt;&lt;br style=&quot;border-color: var(--border-color); color: rgb(0, 0, 0); font-family: Helvetica; font-size: 12px; font-style: normal; font-variant-ligatures: normal; font-variant-caps: normal; font-weight: 400; letter-spacing: normal; orphans: 2; text-align: center; text-indent: 0px; text-transform: none; widows: 2; word-spacing: 0px; -webkit-text-stroke-width: 0px; background-color: rgb(251, 251, 251); text-decoration-thickness: initial; text-decoration-style: initial; text-decoration-color: initial;&quot;&gt;&lt;span style=&quot;color: rgb(0, 0, 0); font-family: Helvetica; font-size: 12px; font-style: normal; font-variant-ligatures: normal; font-variant-caps: normal; font-weight: 400; letter-spacing: normal; orphans: 2; text-align: center; text-indent: 0px; text-transform: none; widows: 2; word-spacing: 0px; -webkit-text-stroke-width: 0px; background-color: rgb(251, 251, 251); text-decoration-thickness: initial; text-decoration-style: initial; text-decoration-color: initial; float: none; display: inline !important;&quot;&gt;lambda = 1, min&lt;/span&gt;" style="rhombus;whiteSpace=wrap;html=1;" vertex="1" parent="WIyWlLk6GJQsqaUBKTNV-1">
          <mxGeometry x="5" y="380" width="130" height="120" as="geometry" />
        </mxCell>
        <mxCell id="qzmpPcX-2nJoJMUCSN6A-28" value="" style="endArrow=classic;html=1;rounded=0;exitX=1;exitY=0.5;exitDx=0;exitDy=0;" edge="1" parent="WIyWlLk6GJQsqaUBKTNV-1">
          <mxGeometry width="50" height="50" relative="1" as="geometry">
            <mxPoint x="271" y="315" as="sourcePoint" />
            <mxPoint x="541" y="315" as="targetPoint" />
          </mxGeometry>
        </mxCell>
        <mxCell id="qzmpPcX-2nJoJMUCSN6A-30" value="" style="endArrow=classic;html=1;rounded=0;" edge="1" parent="WIyWlLk6GJQsqaUBKTNV-1">
          <mxGeometry width="50" height="50" relative="1" as="geometry">
            <mxPoint x="136" y="440" as="sourcePoint" />
            <mxPoint x="186" y="440" as="targetPoint" />
          </mxGeometry>
        </mxCell>
        <mxCell id="qzmpPcX-2nJoJMUCSN6A-31" value="CD Version&lt;br&gt;N(5,1) min" style="rounded=1;whiteSpace=wrap;html=1;fontSize=12;glass=0;strokeWidth=1;shadow=0;" vertex="1" parent="WIyWlLk6GJQsqaUBKTNV-1">
          <mxGeometry x="187" y="420" width="120" height="40" as="geometry" />
        </mxCell>
        <mxCell id="qzmpPcX-2nJoJMUCSN6A-32" value="70%" style="text;html=1;strokeColor=none;fillColor=none;align=center;verticalAlign=middle;whiteSpace=wrap;rounded=0;" vertex="1" parent="WIyWlLk6GJQsqaUBKTNV-1">
          <mxGeometry x="128" y="413" width="60" height="30" as="geometry" />
        </mxCell>
        <mxCell id="qzmpPcX-2nJoJMUCSN6A-35" value="" style="endArrow=classic;html=1;rounded=0;" edge="1" parent="WIyWlLk6GJQsqaUBKTNV-1">
          <mxGeometry width="50" height="50" relative="1" as="geometry">
            <mxPoint x="310" y="440" as="sourcePoint" />
            <mxPoint x="360" y="440" as="targetPoint" />
          </mxGeometry>
        </mxCell>
        <mxCell id="qzmpPcX-2nJoJMUCSN6A-36" value="Prepare Software for Shipping&lt;br&gt;U(3,6) min" style="rounded=1;whiteSpace=wrap;html=1;fontSize=12;glass=0;strokeWidth=1;shadow=0;" vertex="1" parent="WIyWlLk6GJQsqaUBKTNV-1">
          <mxGeometry x="360" y="420" width="120" height="40" as="geometry" />
        </mxCell>
        <mxCell id="qzmpPcX-2nJoJMUCSN6A-39" value="" style="endArrow=classic;html=1;rounded=0;exitX=0.5;exitY=1;exitDx=0;exitDy=0;" edge="1" parent="WIyWlLk6GJQsqaUBKTNV-1" source="qzmpPcX-2nJoJMUCSN6A-26">
          <mxGeometry width="50" height="50" relative="1" as="geometry">
            <mxPoint x="320" y="450" as="sourcePoint" />
            <mxPoint x="70" y="540" as="targetPoint" />
          </mxGeometry>
        </mxCell>
        <mxCell id="qzmpPcX-2nJoJMUCSN6A-40" value="Software, Code Entered&lt;br&gt;lambda = 1, min" style="rounded=1;whiteSpace=wrap;html=1;fontSize=12;glass=0;strokeWidth=1;shadow=0;" vertex="1" parent="WIyWlLk6GJQsqaUBKTNV-1">
          <mxGeometry x="10" y="541" width="120" height="40" as="geometry" />
        </mxCell>
        <mxCell id="qzmpPcX-2nJoJMUCSN6A-41" value="30%" style="text;html=1;strokeColor=none;fillColor=none;align=center;verticalAlign=middle;whiteSpace=wrap;rounded=0;" vertex="1" parent="WIyWlLk6GJQsqaUBKTNV-1">
          <mxGeometry x="64" y="504" width="60" height="30" as="geometry" />
        </mxCell>
        <mxCell id="qzmpPcX-2nJoJMUCSN6A-43" value="Accounting&lt;br&gt;Charge CC&lt;br&gt;lambda = 1/2, min" style="rounded=1;whiteSpace=wrap;html=1;fontSize=12;glass=0;strokeWidth=1;shadow=0;" vertex="1" parent="WIyWlLk6GJQsqaUBKTNV-1">
          <mxGeometry x="541" y="280" width="120" height="56" as="geometry" />
        </mxCell>
        <mxCell id="qzmpPcX-2nJoJMUCSN6A-44" value="" style="endArrow=classic;html=1;rounded=0;exitX=1;exitY=0.5;exitDx=0;exitDy=0;entryX=0.5;entryY=1;entryDx=0;entryDy=0;" edge="1" parent="WIyWlLk6GJQsqaUBKTNV-1" target="qzmpPcX-2nJoJMUCSN6A-43">
          <mxGeometry width="50" height="50" relative="1" as="geometry">
            <mxPoint x="130" y="560.5" as="sourcePoint" />
            <mxPoint x="600" y="561" as="targetPoint" />
            <Array as="points">
              <mxPoint x="601" y="560" />
            </Array>
          </mxGeometry>
        </mxCell>
        <mxCell id="qzmpPcX-2nJoJMUCSN6A-45" value="" style="endArrow=none;html=1;rounded=0;exitX=1;exitY=0.5;exitDx=0;exitDy=0;" edge="1" parent="WIyWlLk6GJQsqaUBKTNV-1" source="qzmpPcX-2nJoJMUCSN6A-36">
          <mxGeometry width="50" height="50" relative="1" as="geometry">
            <mxPoint x="570" y="260" as="sourcePoint" />
            <mxPoint x="600" y="440" as="targetPoint" />
          </mxGeometry>
        </mxCell>
        <mxCell id="qzmpPcX-2nJoJMUCSN6A-46" value="Prepare Invoice&lt;br&gt;Empirical Distribution&lt;br&gt;(see Table 9.20)" style="rounded=1;whiteSpace=wrap;html=1;fontSize=12;glass=0;strokeWidth=1;shadow=0;" vertex="1" parent="WIyWlLk6GJQsqaUBKTNV-1">
          <mxGeometry x="541" y="185" width="120" height="45" as="geometry" />
        </mxCell>
        <mxCell id="qzmpPcX-2nJoJMUCSN6A-48" value="Acct Mail software or email access code with invoice&lt;br&gt;U(45,90) seconds" style="rounded=1;whiteSpace=wrap;html=1;fontSize=12;glass=0;strokeWidth=1;shadow=0;" vertex="1" parent="WIyWlLk6GJQsqaUBKTNV-1">
          <mxGeometry x="541" y="80" width="120" height="65" as="geometry" />
        </mxCell>
        <mxCell id="qzmpPcX-2nJoJMUCSN6A-51" value="" style="endArrow=classic;html=1;rounded=0;exitX=0.5;exitY=0;exitDx=0;exitDy=0;entryX=0.5;entryY=1;entryDx=0;entryDy=0;" edge="1" parent="WIyWlLk6GJQsqaUBKTNV-1" source="qzmpPcX-2nJoJMUCSN6A-43" target="qzmpPcX-2nJoJMUCSN6A-46">
          <mxGeometry width="50" height="50" relative="1" as="geometry">
            <mxPoint x="80.5" y="241" as="sourcePoint" />
            <mxPoint x="80.5" y="281" as="targetPoint" />
          </mxGeometry>
        </mxCell>
        <mxCell id="qzmpPcX-2nJoJMUCSN6A-52" value="" style="endArrow=classic;html=1;rounded=0;entryX=0.5;entryY=1;entryDx=0;entryDy=0;" edge="1" parent="WIyWlLk6GJQsqaUBKTNV-1">
          <mxGeometry width="50" height="50" relative="1" as="geometry">
            <mxPoint x="601" y="182" as="sourcePoint" />
            <mxPoint x="600.5" y="147" as="targetPoint" />
          </mxGeometry>
        </mxCell>
        <mxCell id="qzmpPcX-2nJoJMUCSN6A-53" value="2 Employees" style="text;html=1;strokeColor=none;fillColor=none;align=center;verticalAlign=middle;whiteSpace=wrap;rounded=0;" vertex="1" parent="WIyWlLk6GJQsqaUBKTNV-1">
          <mxGeometry x="320" y="50" width="110" height="30" as="geometry" />
        </mxCell>
      </root>
    </mxGraphModel>
  </diagram>
</mxfile>
